# xmcd
#
# Track frame offsets:
#	225
#	14709
#	29913
#	44817
#	57529
#	75160
#	91378
#	106662
#	121819
#	135089
#	150374
#	167979
#
# Disc length: 2407 seconds
#
# Revision: 2
# Processed by: cddbd v1.4PL0 Copyright (c) Steve Scherf et al.
# Submitted via: audiograbber 1.81.03
#
DISCID=9509640c
DTITLE=Naabtal Duo - Ihre großen Erfolge - Disc 1
DYEAR=1900
DGENRE=
TTITLE0=Schutzengel, bleib bei mir
TTITLE1=Ich hör' schon die Hochzeitsglocken läuten
TTITLE2=Mein Dackel
TTITLE3=Ich will wieder nach Haus'
TTITLE4=Hinter jedem Schatten ist ein Licht
TTITLE5=Falsche Freunde
TTITLE6=Morgen ist heute schon gestern
TTITLE7=Der da oben
TTITLE8=Ich möcht' einmal mein Papa kennen
TTITLE9=Unser Baby ist das schönste Kind der Welt
TTITLE10=Bua, warum läßt du dich gar nimmer seh'n
TTITLE11=Ein bißchen Glück
EXTD=
EXTT0=
EXTT1=
EXTT2=
EXTT3=
EXTT4=
EXTT5=
EXTT6=
EXTT7=
EXTT8=
EXTT9=
EXTT10=
EXTT11=
PLAYORDER=
